<?xml version="1.0" encoding="utf-8"?>
<!-- Generator: Adobe Illustrator 23.0.2, SVG Export Plug-In . SVG Version: 6.00 Build 0)  -->
<svg version="1.1" id="Layer_1" xmlns="http://www.w3.org/2000/svg" xmlns:xlink="http://www.w3.org/1999/xlink" x="0px" y="0px"
	 viewBox="0 0 670.7 69.3" style="enable-background:new 0 0 670.7 69.3;" xml:space="preserve">
<path d="M390.4,60c0,2.5,0,4.8,0,7.2c-8.7,0-17.4,0-26.2,0c0-2.3,0-4.7,0-7.3c1,0,1.8,0,2.6,0c3.9,0,4-0.1,4-4.1c0-6,0-12,0-18
	c0-7.7,0-15.5,0-23.2c-0.2-0.1-0.3-0.1-0.5-0.2c-0.3,0.8-0.7,1.6-1,2.5c-5.7,15.9-11.4,31.8-16.9,47.7c-0.8,2.2-1.8,2.9-4,2.8
	c-4.7-0.2-4.7-0.1-6.1-4.6c-4.9-15.1-9.9-30.2-14.8-45.3c-0.2-0.6-0.4-1.2-1-1.9c-0.1,0.7-0.1,1.3-0.1,2c0,12.7,0,25.5,0,38.2
	c0,4,0,4,4,4c0.9,0,1.8,0,2.8,0c0,2.5,0,4.8,0,7.3c-7.2,0-14.4,0-21.8,0c0-2.3,0-4.6,0-7.3c1.5,0,3-0.1,4.4,0
	c1.7,0.1,2.4-0.8,2.5-2.4c0-0.7,0-1.5,0-2.2c0-13.2,0-26.5,0-39.7c0-4.7,0-4.7-4.6-4.7c-0.7,0-1.3,0-2.2,0c0-2.5,0-4.8,0-7.4
	c4.2,0,8.3,0,12.5,0c3.6,0,7.2,0.1,10.7,0c1.8-0.1,2.6,0.5,3.1,2.3c3.9,12.3,8,24.5,12,36.8c0.2,0.8,0.5,1.5,1,2.7
	c0.5-1.2,0.8-1.9,1.1-2.6c4.3-12.2,8.7-24.4,13-36.7c0.6-1.7,1.3-2.5,3.3-2.4c7.3,0.1,14.6,0.1,22.1,0.1c0,2.5,0,4.8,0,7.4
	c-1.4,0-2.8,0-4.1,0c-1.5-0.1-2.1,0.7-2.2,2.1c-0.1,0.8-0.1,1.7-0.1,2.5c0,13.2,0,26.3,0,39.5c0,5,0,5,4.8,5
	C389.2,59.9,389.7,59.9,390.4,60z"/>
<path d="M640.4,60c0,2.5,0,4.8,0,7.2c-7.9,0-15.7,0-23.7,0c0-2.3,0-4.7,0-7c5.1-0.6,5.1-0.6,5.1-5.8c0-5.2,0-10.3,0-15.5
	c0-1.5-0.1-3-0.4-4.5c-0.6-3.8-2.6-5.8-6.1-6.3c-3.3-0.5-6.8,1-8.1,4.1c-1,2.5-1.7,5.2-1.8,7.9c-0.3,5.3-0.1,10.7-0.1,16
	c0,3.7,0,3.7,3.7,3.8c0.5,0,1,0.1,1.6,0.1c0,2.4,0,4.7,0,7.1c-8,0-16,0-24.1,0c0-2.3,0-4.6,0-7.1c0.6-0.1,1.2-0.2,1.9-0.2
	c3.7-0.1,3.8-0.2,3.9-4c0-7.8,0-15.7,0-23.5c0-4.5,0-4.5-4.5-4.6c-0.3,0-0.7-0.1-1.4-0.1c0-1.1,0-2.2,0-3.4s0-2.3,0-3.7
	c6.2-0.3,12.3-0.5,18.7-0.8c0,2.3,0,4.7,0,7.1c0.2,0.1,0.4,0.2,0.5,0.4c3.3-5.8,8.2-8.3,14.7-8.1c6.6,0.2,11.3,3.1,13.2,9.9
	c0.4-0.7,0.6-1,0.8-1.3c4.4-8,14-11.1,22.3-7.1c5.7,2.8,7.3,8,7.6,13.6c0.3,7,0.1,14,0.2,21c0,4.5,0,4.5,4.5,4.6
	c0.4,0,0.8,0.1,1.3,0.1c0,2.4,0,4.7,0,7.2c-7.9,0-15.8,0-23.8,0c0-2.4,0-4.6,0-6.9c0.2-0.1,0.3-0.3,0.4-0.3c4.6-0.4,4.6-0.4,4.6-5.1
	c0-5.3,0-10.7,0-16c0-1.6-0.2-3.2-0.4-4.7c-0.7-3.8-2.4-5.6-5.9-6.2c-3.4-0.5-6.8,0.9-8.1,4c-1.1,2.6-1.8,5.6-1.9,8.4
	c-0.3,5.1-0.1,10.3-0.1,15.5c0,3.9,0,3.9,3.9,3.9C639.2,59.9,639.7,59.9,640.4,60z"/>
<path d="M480.5,27.4c0-5.3,0-9.8,0-14.4c0-1.7-0.8-2.4-2.5-2.3c-1.1,0.1-2.1,0-3.4,0c0-2.4,0-4.7,0-7.4c3.1,0,6.2,0.1,9.3,0
	s6.3-0.4,9.9-0.7c0,0.9,0,1.8,0,2.8c0,16.2,0,32.5,0,48.7c0,5.4,0,5.4,5.6,5.9c0,1.1,0,2.2,0,3.4c0,1.2,0,2.3,0,3.9
	c-3,0-5.8,0-8.7,0c-2.8,0-5.6,0-8.6,0c-0.2-2.7-0.5-5.1-0.7-7.6c-0.2,0-0.5,0-0.5,0.1c-4.3,7.5-11.1,9.4-19,8.4
	c-7.5-0.9-12.7-5.1-15.6-12.1c-3.7-9-3.5-18.1,1-26.8C453.9,16.4,473.8,15.7,480.5,27.4z M480.8,44.6c-0.4-3.2-0.5-5.6-1-7.8
	c-1.2-5.6-5.4-9.2-10.5-9.4c-5.2-0.2-9.5,3.1-10.9,8.8c-1.5,5.7-1.5,11.4,0.6,16.9c1.6,4.3,5.5,6.9,10,7c4.3,0,8.4-2.4,9.9-6.7
	C479.9,50.4,480.3,47,480.8,44.6z"/>
<path d="M109,57.2c-1.1,3.4-2.2,6.6-3.3,10c-2.4,0-4.8,0-7.2,0c0-1.4,0-2.6,0-3.8c0.1-16,0.1-32,0.2-48c0-4.5,0-4.5-4.4-4.6
	c-0.4,0-0.8-0.1-1.4-0.1c0-2.4,0-4.7,0-7.1c6.4-0.3,12.6-0.5,19.1-0.8c0,8.2,0,16.5,0,24.9c2.9-4,6.4-6.9,11.2-8
	c11.5-2.6,21.8,3.8,24.4,15.2c1.7,7.4,1.7,14.7-1.5,21.7c-3.2,7.2-8.8,11.3-16.8,11.8c-8.5,0.5-15.4-2.1-19.4-10.2
	C109.6,57.9,109.3,57.7,109,57.2z M135.2,44.6c-0.4-3.1-0.5-5.2-0.9-7.3c-1.1-5.9-5.2-9.6-10.7-9.8c-5-0.2-9.3,3-10.8,8.6
	c-1.5,5.7-1.6,11.5,0.6,17.2c1.7,4.4,5.5,7,10,7c4.6,0,8.5-2.6,10.1-7.2C134.3,50,134.7,46.9,135.2,44.6z"/>
<path d="M584.2,60c0,2.4,0,4.7,0,7.6c-6.3,0-12.6,0-19.2,0c0-1.7,0-4,0-6.3c-0.3-0.2-0.5-0.4-0.8-0.5c-0.1,0.4-0.1,0.8-0.4,1.1
	c-4.9,6.4-14.2,8.6-21.6,5.3c-5.9-2.6-7.5-7.7-7.7-13.5c-0.2-7.2-0.1-14.3-0.1-21.5c0-5.2-0.6-4.5-4.4-4.4c-0.4,0-0.8-0.1-1.4-0.2
	c0-2.4,0-4.6,0-7.1c6.2,0,12.4,0,18.9,0c0,1,0,2,0,3c0,8.5,0,17,0,25.5c0,1.2,0,2.3,0.1,3.5c0.3,4.3,1.9,6.6,5.1,7.3
	c4.1,0.9,8.2-0.5,9.9-4c1.1-2.4,1.9-5.2,2.1-7.8c0.3-5.6,0.1-11.2,0.1-16.7c0-3.4-0.1-3.4-3.6-3.4c-0.7,0-1.5,0-2.5,0
	c0-2.4,0-4.7,0-7.4c3,0,6.2,0,9.3,0c3.2,0,6.3,0,9.8,0c0.1,1.1,0.1,2,0.1,3c0,10.7,0,21.3,0,32c0,4.5,0,4.5,4.5,4.6
	C583.1,59.9,583.6,59.9,584.2,60z"/>
<path d="M223.1,27.4c0.4,1.9,1,3.6,1,5.3c0,3.8-2.7,6.4-6.7,6.7c-4.8,0.3-7.9-1.6-8.7-5.6c-1.1-5.4,1.5-10,7.3-12.4
	c4.9-2.1,10.2-2.4,15.5-2.3c3.1,0.1,6.3,0.4,9.4,1.1c6.8,1.6,10.2,5.8,10.4,12.8c0.2,7.2,0.1,14.3,0.1,21.5c0,5.1,0,5.1,5.3,5.4
	c0,2.3,0,4.7,0,7.3c-4.9,0-9.8,0-14.7-0.1c-0.5,0-1.2-0.8-1.5-1.4c-0.8-1.8-1.5-3.6-2.3-5.6c-5.8,7.2-13.2,9.5-21.9,7.5
	c-11-2.5-11.2-15.5-5.9-20.6c3.2-3.1,7-4.9,11.1-5.9c5.4-1.4,10.9-2.5,16.6-3.8c0.1-3,0.3-6.3-2.4-8.8
	C233.5,26.5,227,25.9,223.1,27.4z M237.9,43.3c-4.5,1.3-9,2.3-13.3,4c-4.1,1.6-5.6,5.5-4.2,9.2c1.2,3.1,4.7,4.5,8.9,3.5
	C235.7,58.5,239.5,51.6,237.9,43.3z"/>
<path d="M92.5,60c0,2.5,0,4.8,0,7.3c-3.3,0-6.4-0.1-9.6,0c-3.1,0.1-6.1,0.4-9.5,0.7c0-2.2,0-4.5,0-6c-1.2,0.9-2.8,2-4.3,3.2
	C64,69.1,54.5,69.7,49,66.3c-4.4-2.7-5.9-7.1-6-12c-0.2-7.3-0.1-14.7-0.2-22c0-4.5,0-4.5-4.5-4.6c-0.3,0-0.7-0.1-1.2-0.1
	c0-2.3,0-4.6,0-7.3c3,0,6.1,0,9.2,0s6.1,0,9.6,0c0,1,0,1.9,0,2.8c0,8.7,0,17.5,0,26.2c0,1.2,0,2.3,0.2,3.5c0.5,4.3,2.1,6.3,5.3,6.9
	c4.2,1,8.2-0.4,9.8-4c1.2-2.6,1.9-5.5,2.1-8.4c0.3-5.3,0.1-10.7,0.1-16c0-3.4-0.1-3.5-3.5-3.5c-0.8,0-1.6,0-2.7,0c0-2.5,0-4.8,0-7.4
	c3.1,0,6.2,0,9.4,0c3.2,0,6.3,0,9.9,0c0,1.1,0,2,0,3c0,10.5,0,21,0,31.5c0,4.9,0,4.9,4.8,5C91.6,59.9,91.9,59.9,92.5,60z"/>
<path d="M440.4,46.3c-11.5,0-22.7,0-33.8,0c-0.7,5.8,2.8,11.8,7.6,13.5c7.5,2.6,13.1,0.2,18-8.1c2.3,1,4.7,2.1,7.3,3.2
	c-1.8,5.3-4.9,9.4-9.8,11.3c-10.3,3.9-20.2,3.5-29.3-3.5c-4-3.1-6-7.3-6.9-12.1c-2-10.4-0.2-19.7,8.5-26.8
	c7.5-6.1,21.9-6.3,29.6-0.5c5,3.8,7.3,9.2,8.1,15.2C440.2,40.9,440.2,43.4,440.4,46.3z M427,39.6c-0.4-4.6-0.2-9.2-4.7-11.6
	c-3.8-2.1-8-1.8-11.6,0.8s-4.3,6.6-4.4,10.9C413.3,39.6,419.9,39.6,427,39.6z"/>
<path d="M10.7,10.6c0-2.4,0-4.7,0-7.1c8.7,0,17.3,0,26.1,0c0,2.3,0,4.6,0,7.3c-1.1,0-2.2,0.1-3.4,0c-2.1-0.2-2.9,0.8-2.8,2.8
	c0,1.2,0,2.5,0,3.7c-0.1,12.1,0.1,24.2-0.3,36.2C30,62.5,26,66.7,17,68.1c-5,0.8-10.2,0.7-15-1.4c-0.7-0.3-1.5-1.4-1.6-2.3
	c-0.2-2.1-0.1-4.3-0.1-6.1c3.3,0.5,6.5,1.3,9.7,1.4c4.1,0.1,6.3-2,6.9-6c0.3-1.6,0.4-3.1,0.4-4.7c0-11.2,0-22.5,0-33.7
	c0-4.5,0-4.5-4.5-4.6C12.2,10.8,11.5,10.7,10.7,10.6z"/>
<path d="M203.6,60c0,2.4,0,4.7,0,7.1c-8,0-15.9,0-24.1,0c0-2.3,0-4.6,0-6.9c0.2-0.1,0.3-0.2,0.5-0.2c5.1-0.3,5.1-0.3,5.1-5.5
	c0-13,0-26,0-39c0-4.6,0-4.6-4.5-4.7c-0.4,0-0.8-0.1-1.4-0.1c0-2.4,0-4.6,0-7.1c6.3-0.3,12.6-0.5,19.2-0.8c0,0.8,0,1.7,0,2.7
	c0,16.7,0,33.5,0,50.2c0,4.1,0,4.1,4,4.2C202.7,59.9,203,59.9,203.6,60z"/>
<path d="M275.4,7.1c0,4.5,0,8.7,0,13.2c3.2,0,6.2,0,9.3,0c0,2.6,0,4.8,0,7.4c-3.1,0-6.1,0-9.5,0c0,2.3,0,4.4,0,6.4
	c0,6.3,0,12.7,0,19c0.1,6.3,2.5,8.1,8.7,6.8c0.4-0.1,0.8-0.1,1.5-0.1c0,2.2,0.1,4.2-0.1,6.3c0,0.5-0.8,1.3-1.3,1.4
	c-5.1,1.1-10.3,1.5-15.2-0.4c-5-1.9-6.3-6.4-6.4-11.1c-0.2-8.5-0.1-17-0.1-25.5c0-0.8-0.1-1.6-0.1-2.7c-2.1,0-4,0-6.1,0
	c0-2.3,0-4.4,0-6.5c1.7-0.3,3.3-0.5,4.9-0.9c2.7-0.6,4.1-2.4,4.4-5.1c0.3-2.1,0.4-4.3,0.8-6.4c0.1-0.6,0.8-1.6,1.3-1.7
	C270,7,272.6,7.1,275.4,7.1z"/>
<path d="M526.3,60c0,2.5,0,4.7,0,7.1c-8.1,0-16.1,0-24.3,0c0-2.3,0-4.6,0-7.1c0.6-0.1,1.2-0.2,1.8-0.2c3.7-0.1,3.8-0.1,3.8-4
	c0-7.4,0-14.8,0-22.2c0-5.6,0-5.6-5.6-6c0-2.3,0-4.7,0-7.1c6.2-0.3,12.3-0.5,18.7-0.8c0,0.6,0.1,1.5,0.1,2.3c0,11.2,0,22.3,0,33.5
	c0,4.2,0,4.2,4.3,4.3C525.5,59.9,525.8,59.9,526.3,60z"/>
<path d="M151.6,20.6c6.3-0.3,12.5-0.5,18.9-0.8c0,0.8,0,1.7,0,2.7c0,10.6,0,21.1,0,31.7c0,5.3,0,5.3,5.4,5.8c0,2.3,0,4.6,0,7.1
	c-8.1,0-16.2,0-24.3,0c0-2.4,0-4.7,0-7.2c0.7,0,1.3-0.1,2-0.1c3.8,0,3.8-0.1,3.8-4c0-7.7,0-15.3,0-23c0-4.8,0-4.8-4.9-5.2
	c-0.2,0-0.5-0.1-0.9-0.2C151.6,25.2,151.6,22.9,151.6,20.6z"/>
<path d="M514.3,0.3c4.7,0,8.1,3.4,8.1,8s-3.4,7.9-8.1,7.9c-4.8,0-8.3-3.4-8.2-8.1C506.1,3.4,509.5,0.3,514.3,0.3z"/>
<path d="M163.8,0.3c4.8,0,8.1,3.2,8.1,7.8c0,4.8-3.4,8.1-8.2,8.1c-4.8-0.1-8-3.3-8-8S158.9,0.3,163.8,0.3z"/>
</svg>
